/* XPM */
static char *_8cfff8cfb5f494da78cb250c634a647[] = {
/* columns rows colors chars-per-pixel */
"64 64 215 2 ",
"   c #121215",
".  c #15151A",
"X  c #17181E",
"o  c #18181E",
"O  c #171920",
"+  c #1B1B23",
"@  c #1E1E29",
"#  c #1F202B",
"$  c #222326",
"%  c #22222D",
"&  c #242533",
"*  c #272836",
"=  c #282936",
"-  c #272739",
";  c #282738",
":  c #27293A",
">  c #292B3C",
",  c #2C2E43",
"<  c #2E2F48",
"1  c #2E3046",
"2  c #2F3149",
"3  c #313245",
"4  c #32344C",
"5  c #37384F",
"6  c #3A3A4F",
"7  c #353651",
"8  c #373854",
"9  c #393A56",
"0  c #373958",
"q  c #3B3C5A",
"w  c #3F3F60",
"e  c #3F4056",
"r  c #3F405D",
"t  c #3F4061",
"y  c #434456",
"u  c #42435C",
"i  c #47485A",
"p  c #4A4B5C",
"a  c #424363",
"s  c #464862",
"d  c #4B4C64",
"f  c #464769",
"g  c #4B4C69",
"h  c #4F5064",
"j  c #525265",
"k  c #525369",
"l  c #57586E",
"z  c #5B5C6D",
"x  c #5C5C73",
"c  c #5F6072",
"v  c #646474",
"b  c #65657B",
"n  c #686778",
"m  c #67687A",
"M  c #6A6B7C",
"N  c #6F717D",
"B  c #B72F08",
"V  c #BD350C",
"C  c #B33211",
"Z  c #BC3613",
"A  c #BD3910",
"S  c #B83E24",
"D  c #C0370F",
"F  c #C1390E",
"G  c #C43D12",
"H  c #C13E18",
"J  c #BF4421",
"K  c #C64114",
"L  c #C94216",
"P  c #C5421A",
"I  c #CC4619",
"U  c #CE491C",
"Y  c #D14B1E",
"T  c #C54B24",
"R  c #CA4C23",
"E  c #C54F29",
"W  c #D34E21",
"Q  c #CE5126",
"!  c #C9512C",
"~  c #D45124",
"^  c #D85325",
"/  c #D15528",
"(  c #CD5731",
")  c #C65937",
"_  c #C75938",
"`  c #CC5D3A",
"'  c #D15D36",
"]  c #D95F34",
"[  c #D15F39",
"{  c #CE623D",
"}  c #DB6036",
"|  c #D1623D",
" . c #CE6544",
".. c #CF6A47",
"X. c #CF6D4D",
"o. c #D56A46",
"O. c #D96C47",
"+. c #D46E4A",
"@. c #D5704F",
"#. c #C36552",
"$. c #CA6D52",
"%. c #D06E51",
"&. c #D37455",
"*. c #D3785D",
"=. c #D97D5D",
"-. c #D27D63",
";. c #DB815F",
":. c #D58166",
">. c #D88265",
",. c #D2836C",
"<. c #CA8275",
"1. c #D98C73",
"2. c #D38D79",
"3. c #DA927B",
"4. c #E19176",
"5. c #E5987F",
"6. c #6D6E81",
"7. c #6F7083",
"8. c #737384",
"9. c #797A86",
"0. c #747589",
"q. c #777888",
"w. c #7B7B8C",
"e. c #7E7F92",
"r. c #7F808F",
"t. c #81828D",
"y. c #838493",
"u. c #878995",
"i. c #898A97",
"p. c #878998",
"a. c #8B8C9B",
"s. c #91919E",
"d. c #98999F",
"f. c #8F91A0",
"g. c #9596A3",
"h. c #9799A5",
"j. c #9B9BA6",
"k. c #9C9DAA",
"l. c #A09FAD",
"z. c #A2A2AD",
"x. c #A5A6B2",
"c. c #A8A7B1",
"v. c #ABABB4",
"b. c #AEAEB9",
"n. c #AFB0BA",
"m. c #B3B4BC",
"M. c #DB9782",
"N. c #DE9982",
"B. c #DCA494",
"V. c #DDA99B",
"C. c #E6A187",
"Z. c #E1A28B",
"A. c #E1A696",
"S. c #E3A892",
"D. c #E9AF97",
"F. c #E1AD9B",
"G. c #E2B09F",
"H. c #DFAEA0",
"J. c #DAB0AB",
"K. c #E3B4A6",
"L. c #E5BAAB",
"P. c #ECBDAD",
"I. c #E6BEB2",
"U. c #E7C2B5",
"Y. c #EDC3B4",
"T. c #EAC5B8",
"R. c #E9CBBE",
"E. c #B6B6C0",
"W. c #B8B7C3",
"Q. c #B6B8C0",
"!. c #BBBCC4",
"~. c #BFBFC9",
"^. c #BFC0C7",
"/. c #C5C5CC",
"(. c #C8C8CF",
"). c #CCCCD3",
"_. c #D1D2D7",
"`. c #D4D4DA",
"'. c #DADADE",
"]. c #E7CAC3",
"[. c #EACCC3",
"{. c #EDD1C6",
"}. c #EED5CB",
"|. c #F0D2CA",
" X c #E7D4D2",
".X c #ECD6D3",
"XX c #EDD9D3",
"oX c #EEDDDA",
"OX c #F0D7D3",
"+X c #F1DAD3",
"@X c #F0DCD8",
"#X c #EFE0DC",
"$X c #F3E2DC",
"%X c #DCDCE2",
"&X c #DFE0E5",
"*X c #E1E1E5",
"=X c #EFE4E4",
"-X c #E5E5E9",
";X c #EDE5E8",
":X c #E7E8EB",
">X c #EAEAEE",
",X c #F2E5E2",
"<X c #F2E8E7",
"1X c #F4ECEA",
"2X c #F7F0EF",
"3X c #EDEDF1",
"4X c #F1EFF3",
"5X c #F3F2F5",
"6X c #F9F6F4",
"7X c #FAF8F6",
"8X c #F6F5FA",
"9X c #F8F7FB",
"0X c #F7F8FB",
"qX c #F9F9FB",
"wX c None",
/* pixels */
"wXwXwXwXwXwXwXwXwXwXwXwXwXwXwXwXwXwXwXwXwXwXwXwXwXwXwXwXwXwXwXwXwXwXwXwXwXwXwXwXwXwXwXwXwXwXwXwXwXwXwXwXwXwXwXwXwXwXwXwXwXwXwXwX",
"wXwXwXwXwXwXwXwXwXwXwXwXwXwXwXwXwXwXwXwXwXwXwX  X X @ % & : > : > , : # @ @ X X   wXwXwXwXwXwXwXwXwXwXwXwXwXwXwXwXwXwXwXwXwXwXwX",
"wXwXwXwXwXwXwXwXwXwXwXwXwXwXwXwXwXwXwXwX  X + & , < 7 7 4 4 4 4 4 8 7 < 4 4 , : & # +   wXwXwXwXwXwXwXwXwXwXwXwXwXwXwXwXwXwXwXwX",
"wXwXwXwXwXwXwXwXwXwXwXwXwXwXwXwXwXwX. + % , < 7 7 8 q q 4 < < 2 4 8 7 8 q 0 8 8 9 5 2 * + . wXwXwXwXwXwXwXwXwXwXwXwXwXwXwXwXwXwX",
"wXwXwXwXwXwXwXwXwXwXwXwXwXwXwXwX  O & < 7 0 0 8 7 8 q 8 7 < , < < 7 7 8 q w q 7 7 7 7 4 1 : @ . wXwXwXwXwXwXwXwXwXwXwXwXwXwXwXwX",
"wXwXwXwXwXwXwXwXwXwXwXwXwXwXwXX % > > 4 7 r d i 8 q 9 7 7 2 < 7 < 7 q q w q 7 7 8 8 9 8 7 7 4 ; + wXwXwXwXwXwXwXwXwXwXwXwXwXwXwX",
"wXwXwXwXwXwXwXwXwXwXwXwXwX  + : 4 1 > 1 d g.).Q.l q 7 2 2 7 8 8 8 7 0 q q 8 2 7 r q q q 5 7 8 9 4 % X wXwXwXwXwXwXwXwXwXwXwXwXwX",
"wXwXwXwXwXwXwXwXwXwXwXwXX & , < 1 , , k m.3X5X-X8.8 2 , 1 7 q 8 0 8 8 8 0 7 < 8 9 8 4 7 4 1 7 9 q 7 , + wXwXwXwXwXwXwXwXwXwXwXwX",
"wXwXwXwXwXwXwXwXwXwXwXO - 2 2 2 1 > p Q.5X5X5X^.d 4 1 , , 4 8 8 8 0 q 8 9 h M p.h.g.p.7.h 7 4 8 8 8 q 7 # wXwXwXwXwXwXwXwXwXwXwX",
"wXwXwXwXwXwXwXwXwXwXO > 4 < 2 4 1 i m.5X8X5X).c 2 2 2 1 1 1 4 4 7 w g M l._.:X5X0X5X5X>X_.k.v q 0 8 8 w 7 # wXwXwXwXwXwXwXwXwXwX",
"wXwXwXwXwXwXwXwXwXO , 7 7 2 2 2 e v.5X0X8X_.m 1 1 2 2 1 1 1 1 4 q 0.Q.*X5X0X0X0XqXqXqXqX0X5X'.g.d 7 8 q w 5 # wXwXwXwXwXwXwXwXwX",
"wXwXwXwXwXwXwXwXX - 7 7 4 1 2 6 d.3X5X5X`.N 4 > 1 4 2 1 , 1 3 k z.*X9X9X6X6X<XoX+X+X$X2X0X9X9X3Xv.d 8 q q 0 2 @ wXwXwXwXwXwXwXwX",
"wXwXwXwXwXwXwX. % , 4 2 2 , , 9.-X0X8X%XN 4 1 1 2 4 2 1 = 3 c ^.4XqX0X4X[.M.&.` ' { O.1.Y.<X9X9X4Xx.a 9 7 8 7 < + wXwXwXwXwXwXwX",
"wXwXwXwXwXwX  + > 2 2 2 7 2 j ).5X0X:Xy.1 , 4 4 2 2 2 , = v ).5X0X6X}.3.[ I K K K G L I ! 1.oX6X9X-X0.8 q 7 7 0 , O wXwXwXwXwXwX",
"wXwXwXwXwXwXO % ; 1 < 2 7 u b.6X8X5Xz.r 1 4 4 7 4 1 2 4 v _.5X5X2XI...I K I I I K K I G F P 1.1X8X9Xb.r q 8 7 9 q -   wXwXwXwXwX",
"wXwXwXwXwX. % = > 2 4 2 6 i.>X6X8X/.k 7 4 4 1 4 4 , 1 z (.8X6X6XI.{ K P I U U I K K I L K F ! {.9X9X).d 9 8 7 9 q 7 @ wXwXwXwXwX",
"wXwXwXwX  # > ; > 4 4 7 b '.9X8X%X7.7 8 8 4 < < 4 , i m.5X6X6XL.' G G L Y U I L G K I I U L T U.9X9X).g 9 8 9 9 q 9 , X wXwXwXwX",
"wXwXwXwXO , 2 , , 4 4 u b.6X8X3Xg.6 4 8 8 7 7 9 8 9 s.3X6X6XR.{ L I I I Y U I G K L L I U I ! [.9X9X!.a 9 7 9 8 9 q 7 % wXwXwXwX",
"wXwXwX  & 3 2 , 4 7 7 7.-X0X9X/.p 4 8 8 4 4 7 8 0 b '.9X0XoX&.P K I I Y Y U L L K I I Y U L %.$X9X5Xk.q 9 7 7 8 9 q q 2 o wXwXwX",
"wXwXwXo > , 2 2 7 r g Q.0XqX>Xt.8 q q 7 < 4 8 q q k.4X9X6XZ.Q K K U U U Y L L L I I I I L Q V.6X9X-Xn 9 q 7 7 8 7 9 q 9 % wXwXwX",
"wXwX  @ > > , 2 7 r 0.:XqXqX(.k r r 9 4 4 7 8 q x `.9X9X}.o.W G I U I I U G L U U Y Y I L :.,XqX8Xb.a q q q 8 8 8 8 q q > . wXwX",
"wXwX  - 2 > > 4 9 s n.0XqX4Xa.q r r 7 1 4 q q q a.4X9X5XN.~ P F I Y I I L G G U U Y Y U X.}.7XqX'.v q q 8 7 q 8 9 9 0 0 7 O wXwX",
"wXwXO , 7 2 2 4 8 c '.qXqX).k q t q < < q t q s !.qX9XXX .L F F I G L G G F G I U Y Y @.[.6XqX>Xy.7 4 9 7 7 8 9 9 8 8 0 9 &   wX",
"wX  $ , 7 2 3 4 4 u.5XqX6Xs.q w a q 7 0 w t t x '.qX9XK.R K G G G F F G F G U I I ~ =.|.6XqX5Xx.g 7 2 9 7 7 7 7 7 8 7 q 8 > . wX",
"wX  % , 7 < 2 4 y !.qXqX'.c q a a r q q t t t 8.3X9X5X3.G A G I G G G G G I Y Y W ;.+X7XqXqX3Xv.e.x u 9 8 , 1 2 7 4 7 9 8 2 O wX",
"wX. & ; > 1 4 1 z &X9X9Xb.r 8 q a q t r r r 9 p.4X9X1X=.I K K K L I L G U Y W W } Y.7XqXqXqXqX7X3X%Xm.8.u , , , 7 4 7 8 7 4 # wX",
"wXo & * & , 3 , t.3X9X3Xw.7 8 q q q q 7 r 9 9 j.qXqX$XO.U L I L I I I U W U W ^ } Y.2X6X7X7XqXqXqXqXqX:Xz.u , 1 < < 2 5 8 8 & wX",
"wX+ * ; = > 7 5 v.8X8X'.l 4 7 8 8 8 4 2 7 4 e b.qX7XOX| I L I I U U Y W W W W W ~ O.4.5.C.D.P.}.,X6XqXqX4Xb.i 1 4 7 8 9 9 7 & wX",
"wX+ > > , 2 7 y (.9X9X!.s 7 4 8 7 7 1 4 4 4 r Q.qX7X|.( G K I I I Y Y Y Y W W W Y ^ Y W ~ / / [ &.S.$X7XqX5Xx.e 8 8 q r q 2 &   ",
"wX# > > 2 4 3 z &X9X0Xx.r 7 7 7 4 4 1 4 4 4 r Q.9XqX}.' I G K G G G I G I U W ^ ~ ~ Y W ~ W K I ^ ~ =.}.6X0X:Xw.4 1 7 r 4 2 : o ",
"wX@ * > 2 2 3 N 3X0X8Xf.8 7 7 4 1 , 1 4 7 4 6 n.6X9X}.' I G G G G G F G L Y Y W W W Y W W W Y U Y Y Y >.,X6X6X/.d , 1 7 4 < , o ",
"wX$ & > , > 2 t.3X0X4Xr.4 2 < 1 , , 4 4 4 4 4 v.8X5XOX[ K K G L G G V F L Y Y Y Y I Y W Y W Y Y I I U Q K.4X0X3X8., , 7 8 4 1 o ",
"wX$ = > > > , u.5X9X>Xq.1 1 1 1 1 4 7 8 7 4 4 j.9X6X$X..K K K L G D D F L U U I I Y Y U I U I I I L I L -.<X9X5Xk.4 4 r q 7 , o ",
"wX+ % * = = > u.5XqX>X8.2 4 4 4 1 < 7 7 7 4 4 a.5XqX1X:.G K K K G G I I U U L L I I G L L L L L I Y I G _  X9X8XQ.q 9 t q 7 , O ",
"wX+ = * = = > t.5X9X3Xw.7 0 7 4 2 2 4 8 7 5 7 0.>X0X6X3.K K L L L L U I L L L I I I D D F G F G Y Y L F E ].9X9X/.u 9 q q 7 , O ",
"wX+ = = & = > 9.3X0X8Xa.q q 8 8 4 7 6 q 9 9 8 x %X0X6XK.T K L L G L I F L L L I G G F F F G F F I I L L E ].9X9X(.s 7 9 8 9 , X ",
"wX+ = = > 4 6 7.>XqX9Xk.u t q 7 4 7 q q q q q s ^.8X9XoXo.I I K F F G G F G L L U I F G L I G G I I I I ' .X9X9X!.r 2 7 7 6 > wX",
"wXo = > , 4 7 x &X0X9X!.a w q 8 7 9 r u q 9 7 q g.8XqX2XN.W I K G L L F F G I I U U L G L I I G L L U L *.<X8X8Xb.6 1 4 7 2 & wX",
"wX. = > < 2 4 u /.8X8X%Xx q q 8 9 q q w q 8 7 q b -XqXqX{.[ K L L Y U L F L L G I I G G L G F F G L G H A.9X9X4Xa.4 < 7 9 7 @ wX",
"wX. & , , 1 2 7 z.8X8X3Xu.0 q 0 9 q q 7 8 4 7 q s !.qXqX2X1.K G I U L L L F D F G I G G L L G F L L G } .X9X8X&Xb , 4 8 q 2 O wX",
"wX  % , > , , , 9.3X6X8X!.g q 8 7 7 7 7 7 4 4 7 q e.>X9X9X[.) K L L L I L G F F G G F G I I F I L L P B.4X0X5Xm.u 4 7 q q , . wX",
"wXwXo = > : , 2 h `.8X8X*X6.q 4 4 4 7 7 7 4 4 7 8 p ^.9X9X2XB.R I I I I K G K F D D G K I I F K I P ,.;X0X0X&XM 7 8 8 q q &   wX",
"wXwX  % = % ; 2 5 k.5X0X8Xx.r 4 4 4 < 2 1 1 4 7 7 5 0.-X9X8X;X-.U L L I K G G F V D D L Y K D A K %. X6X5X3Xd.3 < 8 9 q 9 + wXwX",
"wXwX  + % $ % > 4 v &X6X0X&Xb < 4 4 4 < 1 1 , , 4 4 q x.5X9X9X[.] G G G F D D F F F G L Y G V Z  .[.6X0X0X/.p , 7 8 q q 7 o wXwX",
"wXwXwX. $ $ % = , 6 v.6X0XqXQ.i 4 4 4 < , , , < 7 7 7 l (.9X6X4XS.T K A V V V A G D F I I D C #.].5X8X9X%Xm , 4 8 7 9 9 % wXwXwX",
"wXwXwX  $ % % = > , c `.9X0X4Xh.r 5 4 4 < 4 7 q q 8 8 7 8.'.8X9X<X2.P A G K F V V B A K F S <. X5X8X9X%Xy.9 4 7 q 9 9 < o wXwXwX",
"wXwXwXwXo * = = = > > r.-X9X0X:Xg.e < 4 4 0 7 7 8 q 8 8 r y.*X0X5X#X,.H G L A B B B V T $.J.;X5X8X9X'.w.r 4 8 8 q 9 2 % wXwXwXwX",
"wXwXwXwX  % ; ; , > = 3 j.3XqX0X>Xz.h 4 < 7 4 4 8 9 8 4 7 9 s.>X0X5XoX-.P K F V V P $.H.#X5X9X9X5X).7.t 4 4 4 4 7 8 , o wXwXwXwX",
"wXwXwXwXwXo & , < 1 > = y v.4X6X9X3X).y.j 9 7 7 q q 8 7 7 4 e j.3X8X9XoX-.R E ..3.U.=X5X8X8X0X:Xx.z 9 q 4 2 7 2 7 7 @ wXwXwXwXwX",
"wXwXwXwXwXwX@ , , 1 > = = i x.>X9X0X8X3X`.x.q.l d a r 8 q 0 4 d b.5X8X9X@XG.T.#X2XqX5X8X0X3X/.r.q 4 < 4 2 7 7 9 4 - . wXwXwXwXwX",
"wXwXwXwXwXwX. % ; & & = = > e i.`.3X8X8X9X5X>X'./.n.l.h.h.h.k.x./.8X9X9X7X6X6X0XqXqX9X3X).u.d 4 1 < 4 7 q q w q , + wXwXwXwXwXwX",
"wXwXwXwXwXwXwXo - , = % * > , 3 z l.%X8X9X8X8X0X0X0X8X5X5X8X0X0X9X9X9XqXqXqX9X9X6X&XQ.y.h 4 < 1 , 4 8 q q q a 9 $ wXwXwXwXwXwXwX",
"wXwXwXwXwXwXwXwX+ > 1 > & = > , 2 q c j.).:X5X5X0XqX0X8X0X8X0X0X9X9X9X9X0XqX0X0X'.w.u 7 4 4 7 1 < 9 r t r a 9 & wXwXwXwXwXwXwXwX",
"wXwXwXwXwXwXwXwXwX+ - > > * * , 2 2 < 4 i N h.m._.*X>X>X3X3X3X3X3X%X).E.!.4XqXqX3X/.8.r 4 7 8 7 8 8 7 q 9 7 & wXwXwXwXwXwXwXwXwX",
"wXwXwXwXwXwXwXwXwXwX+ * , , * , < 2 1 > , , 4 e g x m 6.0.q.w.q.0.b g r d h.:XqXqXqX-Xa.e 0 8 4 4 4 4 4 1 % . wXwXwXwXwXwXwXwXwX",
"wXwXwXwXwXwXwXwXwXwXwX+ * 1 > * 1 4 , > * - , 1 < 4 4 4 7 q q t f f q 8 7 a r._.5XqX0X).g q 7 < 4 4 q 4 @ wXwXwXwXwXwXwXwXwXwXwX",
"wXwXwXwXwXwXwXwXwXwXwXwX+ * 1 , , > , > , , , 4 2 4 2 2 4 q 8 q a f a 4 < q r x k.'.%Xj.u 4 1 1 4 7 2 @ wXwXwXwXwXwXwXwXwXwXwXwX",
"wXwXwXwXwXwXwXwXwXwXwXwXwX. % , 2 4 4 1 1 , 1 4 7 4 4 2 4 8 7 q a f w 8 7 9 q q a l l 9 7 7 1 4 7 ; O wXwXwXwXwXwXwXwXwXwXwXwXwX",
"wXwXwXwXwXwXwXwXwXwXwXwXwXwX. + > 4 6 7 4 4 4 4 7 7 4 7 q w t a a w w 0 8 q q q 9 8 7 4 q r < > @ . wXwXwXwXwXwXwXwXwXwXwXwXwXwX",
"wXwXwXwXwXwXwXwXwXwXwXwXwXwXwXwXX % , 7 7 5 4 4 7 7 4 q a f f f f w w 0 q q 8 8 8 7 7 7 7 1 # o wXwXwXwXwXwXwXwXwXwXwXwXwXwXwXwX",
"wXwXwXwXwXwXwXwXwXwXwXwXwXwXwXwXwXwXX @ > 4 7 7 7 7 4 q a a a a a a t t q q 8 7 7 < 1 > % o wXwXwXwXwXwXwXwXwXwXwXwXwXwXwXwXwXwX",
"wXwXwXwXwXwXwXwXwXwXwXwXwXwXwXwXwXwXwXwX. + % > 1 4 4 4 4 4 1 4 q q q 0 0 8 7 < : % O . wXwXwXwXwXwXwXwXwXwXwXwXwXwXwXwXwXwXwXwX",
"wXwXwXwXwXwXwXwXwXwXwXwXwXwXwXwXwXwXwXwXwXwXwX. o @ # & - & & & , , , > > & + O .   wXwXwXwXwXwXwXwXwXwXwXwXwXwXwXwXwXwXwXwXwXwX",
"wXwXwXwXwXwXwXwXwXwXwXwXwXwXwXwXwXwXwXwXwXwXwXwXwXwXwXwX  . . . X O . . wXwXwXwXwXwXwXwXwXwXwXwXwXwXwXwXwXwXwXwXwXwXwXwXwXwXwXwX"
};
