/* XPM */
static char *graphic[] = {
/* width height num_colors chars_per_pixel */
"32 32 455 2", 
/* colors */
"   c None",
".  c #E0BCB0",
"X  c #CBCCD1",
"o  c #C8795F",
"O  c None",
"+  c #343553",
"@  c #E3E1E3",
"#  c #A6A7B1",
"$  c #5C5D71",
"%  c #343451",
"&  c #67687A",
"*  c #C6461B",
"=  c None",
"-  c None",
";  c #343553",
":  c #5E5E73",
">  c #42435A",
",  c #343553",
"<  c #69697C",
"1  c #D39B88",
"2  c #A4A4AE",
"3  c #ECE9E9",
"4  c #D19683",
"5  c #F1E7E4",
"6  c None",
"7  c #5C5D72",
"8  c #333453",
"9  c #F9F7F6",
"0  c #BCBDC4",
"q  c None",
"w  c #727384",
"e  c #42435B",
"r  c None",
"t  c #C9C9CF",
"y  c #333452",
"u  c #333452",
"i  c #C14C25",
"p  c #7F7F8F",
"a  c #D39D8B",
"s  c #CB4619",
"d  c #DBAB9B",
"f  c #E1E0E3",
"g  c #656578",
"h  c #373853",
"j  c #C14E27",
"k  c #D39F8D",
"l  c #343452",
"z  c #373853",
"x  c #333452",
"c  c #42435C",
"v  c #C4471D",
"b  c #EEEEF0",
"n  c #CA846C",
"m  c #4D4E65",
"M  c #ADAEB7",
"N  c #B8B9C0",
"B  c #58596E",
"V  c #888997",
"C  c None",
"Z  c #343452",
"A  c #9595A2",
"S  c None",
"D  c #343452",
"F  c #D7A595",
"G  c #343452",
"H  c #ABABB4",
"J  c #7B7B8B",
"K  c #343453",
"L  c #868694",
"P  c #343453",
"I  c #80818D",
"U  c #D3A190",
"Y  c #373854",
"T  c #82828F",
"R  c #C94519",
"E  c #EAEAEC",
"W  c #333452",
"Q  c #494A61",
"!  c #C56F53",
"~  c #797A8A",
"^  c #D0D0D5",
"/  c #EFE8E7",
"(  c #A0A0AC",
")  c #C25F3E",
"_  c #343453",
"`  c #B6B6BE",
"'  c #C57155",
"]  c #333452",
"[  c #C2461D",
"{  c #9C9CA7",
"}  c None",
"|  c #C57357",
" . c None",
".. c #777787",
"X. c #343452",
"o. c #333452",
"O. c None",
"+. c #C9451A",
"@. c #333452",
"#. c None",
"$. c #E4E3E4",
"%. c #C05E3D",
"&. c #494A62",
"*. c #D9DADD",
"=. c None",
"-. c #E6E6E8",
";. c #CF866D",
":. c #C1C1C8",
">. c #343452",
",. c #ECDAD5",
"<. c #333453",
"1. c #333452",
"2. c #A7A7B1",
"3. c #343453",
"4. c None",
"5. c #C7461B",
"6. c #D0937F",
"7. c #A3A3AC",
"8. c None",
"9. c #333452",
"0. c #E1C0B4",
"q. c None",
"w. c #333453",
"e. c #333452",
"r. c #3A3B55",
"t. c #DFBBAF",
"y. c #CACBD0",
"u. c #E2E0E2",
"i. c #505167",
"p. c #333552",
"a. c #333452",
"s. c #D7D7DB",
"d. c #5B5C70",
"f. c None",
"g. c #C26344",
"h. c #B2B2BB",
"j. c #FEFDFD",
"k. c #FAF7F6",
"l. c #333452",
"z. c #9898A4",
"x. c #68687B",
"c. c #D29C89",
"v. c #E5C8BE",
"b. c #323552",
"n. c #3A3B56",
"m. c #CC4619",
"M. c None",
"N. c #45465F",
"B. c #333552",
"V. c #333453",
"C. c #505168",
"Z. c #C24E27",
"A. c #E3C3B9",
"S. c #5B5C71",
"D. c #9697A3",
"F. c #E2E2E5",
"G. c #A1A2AC",
"H. c #EDEDEE",
"J. c #C8C8CE",
"K. c #343452",
"L. c #C5471D",
"P. c #7E7E8E",
"I. c #6D6E7E",
"U. c #D5D4D9",
"Y. c #F6F3F2",
"T. c None",
"R. c #838490",
"E. c #333351",
"W. c #C4684B",
"Q. c #F8F6F6",
"!. c #A1A2AD",
"~. c #333551",
"^. c #EDEDEF",
"/. c #D1D2D6",
"(. c #41425B",
"). c #4C4D64",
"_. c #57586D",
"`. c #4E4E66",
"'. c #DEDEE1",
"]. c #D8A999",
"[. c #B9B9C1",
"{. c #A8A9B1",
"}. c #333352",
"|. c #C4C4CA",
" X c #C15E3C",
".X c #343452",
"XX c #4A4A61",
"oX c None",
"OX c #363753",
"+X c #90909C",
"@X c #363753",
"#X c #E9D2CB",
"$X c #41425C",
"%X c #CD8973",
"&X c #343653",
"*X c #D1D2D7",
"=X c #343452",
"-X c None",
";X c #343452",
":X c #E9E9EB",
">X c #3D3E57",
",X c #C15E3D",
"<X c #535469",
"1X c #CFCFD4",
"2X c #343453",
"3X c #343452",
"4X c #4A4A62",
"5X c None",
"6X c #B5B5BD",
"7X c None",
"8X c None",
"9X c #C54D25",
"0X c #C26D51",
"qX c #C34820",
"wX c #3D3E58",
"eX c #E9E9EC",
"rX c None",
"tX c #484961",
"yX c #E5E3E5",
"uX c #343452",
"iX c #F1E4E0",
"pX c #F0EEEE",
"aX c #53546A",
"sX c None",
"dX c #8E8F9C",
"fX c #DADADE",
"gX c #4A4A63",
"hX c None",
"jX c #C0C0C7",
"kX c None",
"lX c #343453",
"zX c #818190",
"xX c #343452",
"cX c None",
"vX c #8C8C99",
"bX c None",
"nX c #C0532F",
"mX c #DEB8AC",
"MX c #343551",
"NX c None",
"BX c None",
"VX c #696A7D",
"CX c #D19582",
"ZX c #E5E5E8",
"AX c #393A54",
"SX c #333553",
"DX c #44455D",
"FX c #A4A5AF",
"GX c None",
"HX c #4F5066",
"JX c #CD4619",
"KX c #7F808F",
"LX c #84848F",
"PX c #8A8B98",
"IX c #D6D6DA",
"UX c #B1B1BA",
"YX c #818191",
"TX c #515168",
"RX c #E0BDB2",
"EX c #C25A37",
"WX c #A2A2AC",
"QX c None",
"!X c None",
"~X c #C6471D",
"^X c #E4C7BD",
"/X c #393A55",
"(X c #696A7E",
")X c #44455E",
"_X c #D4D5D9",
"`X c #343552",
"'X c #E2C2B8",
"]X c #C14D26",
"[X c #CB907C",
"{X c #F9F6F6",
"}X c #67677B",
"|X c #C4461C",
" o c #D2D2D6",
".o c #F9F8F8",
"Xo c #888896",
"oo c #323451",
"Oo c #C3C3C8",
"+o c #DFDEE1",
"@o c #C4481E",
"#o c #CB4519",
"$o c #393A56",
"%o c #EAE9EA",
"&o c #D5A392",
"*o c #323453",
"=o c #D9AB9B",
"-o c None",
";o c #7E7F8A",
":o c #E8D1C9",
">o c #40415A",
",o c #EFE9E7",
"<o c #ECECEE",
"1o c #333552",
"2o c None",
"3o c #4B4C63",
"4o c #D2D2D7",
"5o c #9C9DA7",
"6o c #B8B8C0",
"7o c None",
"8o c #343552",
"9o c #C4481F",
"0o c #F1ECEB",
"qo c None",
"wo c #CECED2",
"eo c #333553",
"ro c None",
"to c #C9461A",
"yo c #D9AB9C",
"uo c #DBB2A3",
"io c #323452",
"po c None",
"ao c #353652",
"so c #343552",
"do c #E8D1CA",
"fo c #40415B",
"go c #4B4C64",
"ho c #323450",
"jo c #C1C2C8",
"ko c #DDDDE1",
"lo c #E8E8EA",
"zo c None",
"xo c #C3C3CA",
"co c #CECED3",
"vo c #525368",
"bo c #54546A",
"no c #5F5F73",
"mo c #353653",
"Mo c #323451",
"No c None",
"Bo c #EFEBEB",
"Vo c #C26242",
"Co c #F0E1DD",
"Zo c #C1C2C9",
"Ao c #333553",
"So c #FAF6F4",
"Do c #3C3D57",
"Fo c #F3F3F4",
"Go c #474860",
"Ho c #C7451A",
"Jo c #525369",
"Ko c #EFEDED",
"Lo c #8D8E9B",
"Po c #5D5E72",
"Io c #C7471C",
"Uo c #9899A4",
"Yo c None",
"To c #CACACF",
"Ro c #D5D5D8",
"Eo c #EEE0DC",
"Wo c #323452",
"Qo c #323453",
"!o c #3C3D58",
"~o c #E3C4B9",
"^o c #E4E2E5",
"/o c #C7451B",
"(o c None",
")o c #C5461B",
"_o c #BF5430",
"`o c #E3C6BB",
"'o c #EBE7E7",
"]o c #E1BFB4",
"[o c #323453",
"{o c None",
"}o c #383953",
"|o c #9899A5",
" O c #E4E4E7",
".O c #D3D4D7",
"XO c #4E4F65",
"oO c #898A97",
"OO c #45455E",
"+O c #B0B0B9",
"@O c #5B5B70",
"#O c None",
"$O c #666679",
"%O c #9696A2",
"&O c #C46B4D",
"*O c #C5461C",
"=O c None",
"-O c #383954",
";O c None",
":O c #43445D",
">O c #4E4F66",
",O c #CA4619",
"<O c #595A6F",
"1O c None",
"2O c #333451",
"3O c #C35E3C",
"4O c #646578",
"5O c #C74B22",
"6O c #D1D1D5",
"7O c #7C7C8C",
"8O c #D3D2D7",
"9O c #C3471D",
"0O c #C15B39",
"qO c #383955",
"wO c #EBD6CF",
"eO c #333452",
"rO c None",
"tO c None",
"yO c #343552",
"uO c #343553",
"iO c #EBD8D1",
"pO c #7A7B8B",
"aO c #C6C6CD",
"sO c #D1D1D6",
"dO c None",
"fO c #DCDCDF",
"gO c #92929F",
"hO c #626276",
"jO c #F0EBEA",
"kO c #C2C2C8",
"lO c None",
"zO c #E9E8EA",
"xO c #343553",
"cO c #787888",
"vO c #C84519",
"bO c #F2ECEC",
"nO c #CFCED3",
"mO c #C34920",
"MO c #343552",
"NO c None",
"BO c #EEE8E7",
"VO c #858695",
"CO c None",
"ZO c #606175",
"AO c #EEEAE9",
"SO c #4C4C65",
"DO c #6B6C7E",
"FO c #E7E7E9",
"GO c #343552",
"HO c #343553",
"JO c #767787",
"KO c #46475E",
"LO c None",
"PO c #CDCDD2",
"IO c #343552",
"UO c #DEB7AA",
"YO c #E9D5CF",
"TO c #343552",
"RO c #838392",
"EO c #DAD9DD",
"WO c #343552",
"QO c #343552",
"!O c #343553",
"~O c None",
"^O c #343553",
"/O c None",
"(O c #C34B23",
")O c None",
"_O c #CF8F7B",
"`O c #333452",
"'O c #343451",
/* pixels */
"                  O ;Opo1O8.p.K P % #.=.-X= oX                  ",
"              O 7X8XB.b.o.^O+ a.xXV.9.yOK._ C O.oX              ",
"            No{oeO2XGO, , , , , , , , , , a.;X8o4.QX            ",
"          =OlOx GO, , QO, , , $Xfo, , , , , , IOeorohXO         ",
"        cX- xO; , , c ZO)X!oDXXoD.wXQOQOQO, , , , HO`X} O       ",
"      rX!Xw., , , Q FX4o$Ow 5oI 6OI.XX7 : go/XQO, , MOeO(o      ",
"    NolOxO, , QO:O2 :X!.e VX^ ;oOos.wou.@ coA `.ao, , 1.*o=     ",
"  O r x ; , , n.LoloH tXQOc 6XRo$.iXmXc.a 'X/ ` )., , , 1o2oT.  ",
"  7X2OGO, , moDO'.jXHXQO, >X{.{X^X| j v 9O_oU BoVO@X, , TO8 S   ",
"O 8XuO, , , gojofO& ao, @XcOyX~og.* m.JXJXvO0X5 ( qO, , , HOLOT.",
";O}.+ , , Y PXE gOr., , >OToiO&O5.JXJXJXJX)on BOVOmo, , , TOsoCO",
"pob., , , XOPOsOJoQO, @XzXAOCX9oJXJXJXJX+. X`onObo, , , , , .X .",
"1O@., , ao7OeXgO-O, , wXh.,.Vo,OJXJXJXto3OUO3 R.}oQO, , , , uXtO",
"/O9., , wX+Okod.QO, , 3o^ . j m.JXJXJX9Xd SoFoN P.GoQO, , , xXE.",
"p.+ , , C.IX[.>o, , QO_.+o].qXJXJXJXJX5O;.=ot.YO'oUX>O, , , ; ~.",
"l a., l.< FOz.z , , QO$ ^oF 9oJXJXJXJXs IomO]X%.k ,oG.wX, , , ho",
"MXTO, QOpO<oL ao, , QOB f yomOJXJXJXJXJXJXJXJXR nX0.+oS.QO, , Mo",
"% V., QOKX^.ROQO, , , m U.RXZ.m.JXJXJXJXJXJXJXJX|X4 KoJOQO, ; Qo",
"f.e., QO..H.dX@X, , , >o[.iO,X,OJXJXJXJXJXJXJXJX*O6.pXJ QO, IOoo",
"GX3X, QOhOZXM Do, , , @XvXjO%X~XJXJXJXJXJXJXJXm.i uozOx.QO, 9.#.",
"-Xx , , &.X s.<XQO, , QO<OEOv.EXs JXJXJXJXJXJX/o' CoJ.4X, , <.M.",
"= ioa., qOUob oOz , , , n.|o0o1 (Om.JXJXJXJXHo) A..o{ AX, ; SXbX",
"oXC @., QOPo*./.@OQO, , QOi.xoEoo L.m.JX#o@oW.]oY.-.|.aX, !ONXYo",
"  #OX.a., $oV :XjXnoqOQO, ao4O8Odo! [ mO0O_OwO9  OLX6oYXOXu -X  ",
"  BX4.eo, , (.z.loIX%Og 3o(.> T %o#X[X&o:obO_XWX o+X<XSO&X-o6   ",
"    QXq lX, QO>op t E ZX*XZo0 y.Foj.k.Q..O%O_.DoRO# c e.eO5X    ",
"      q.Z MO, QOz ).~ 2.aOs.fOfX1XkOF.Fo7.KOQOQO!o&.h `O-XO     ",
"      O kXD 1., , QOQOn.OO>OvoTXtXe DO:.s.(XQO, , e.`Ozo7o      ",
"        O bX'O] TO, , , , , QOQO, , mogX}XN., ; w.G qo7o        ",
"          O = dO8 AoTO, , , , , , , , , QOWOuXy NO5XO           ",
"              T.)OLO[oW MOa.; , , ; a.9.=XSX~O-X6               ",
"                  T.sX .rOE.~.Wo>.3.oof.8XbXYo                  "
};
