/* XPM */
static char *_be966da02c9413191391724b1d7c01d[] = {
/* columns rows colors chars-per-pixel */
"16 16 195 2 ",
"   c #20202C",
".  c #24242F",
"X  c #212131",
"o  c #232531",
"O  c #232432",
"+  c #232532",
"@  c #242432",
"#  c #242533",
"$  c #262633",
"%  c #242636",
"&  c #29293B",
"*  c #282A3A",
"=  c #28283C",
"-  c #292B3D",
";  c #2A2A3C",
":  c #2B2B3F",
">  c #292C3D",
",  c #2A2C40",
"<  c #2B2C40",
"1  c #2B2D41",
"2  c #2C2C41",
"3  c #2C2D42",
"4  c #2C2E42",
"5  c #2D2E42",
"6  c #2C2E43",
"7  c #2E2F43",
"8  c #2D2F44",
"9  c #2E2F44",
"0  c #2F2F45",
"q  c #2D2F46",
"w  c #2F2F47",
"e  c #2E3040",
"r  c #2E3146",
"t  c #303140",
"y  c #303046",
"u  c #323347",
"i  c #363745",
"p  c #303248",
"a  c #313249",
"s  c #323449",
"d  c #32334C",
"f  c #32344C",
"g  c #33354D",
"h  c #33354E",
"j  c #34364F",
"k  c #37394E",
"l  c #39394F",
"z  c #353651",
"x  c #373851",
"c  c #373852",
"v  c #383952",
"b  c #383A52",
"n  c #3C3D52",
"m  c #383A56",
"M  c #3A3B56",
"N  c #3B3D56",
"B  c #3D3D56",
"V  c #3D3E57",
"C  c #3A3B58",
"Z  c #3F4152",
"A  c #3E4055",
"S  c #404154",
"D  c #40415B",
"F  c #43455A",
"G  c #44455A",
"H  c #41425D",
"J  c #41425F",
"K  c #43445C",
"L  c #44455D",
"P  c #44455F",
"I  c #46475F",
"U  c #424261",
"Y  c #474960",
"T  c #484960",
"R  c #4B4C61",
"E  c #4B4C63",
"W  c #4D4E60",
"Q  c #4E4F62",
"!  c #4B4C65",
"~  c #4B4C66",
"^  c #4D4E64",
"/  c #525363",
"(  c #565765",
")  c #525369",
"_  c #50516A",
"`  c #53546B",
"'  c #56576B",
"]  c #5A5B73",
"[  c #5B5C70",
"{  c #5D5D72",
"}  c #5D5E73",
"|  c #5F6074",
" . c #616173",
".. c #646472",
"X. c #626378",
"o. c #666679",
"O. c #64657B",
"+. c #67687B",
"@. c #67687C",
"#. c #69697F",
"$. c #6B6B7E",
"%. c #71727E",
"&. c #C43D12",
"*. c #C74014",
"=. c #C94216",
"-. c #C94317",
";. c #CA4217",
":. c #CA4417",
">. c #CB4318",
",. c #CB4418",
"<. c #CB4519",
"1. c #CC4619",
"2. c #CC471B",
"3. c #CF4B1E",
"4. c #C94A23",
"5. c #CB4E25",
"6. c #C74F2A",
"7. c #D14F23",
"8. c #CD532B",
"9. c #CE532C",
"0. c #CD552E",
"q. c #CC562E",
"w. c #D4582D",
"e. c #CE5A34",
"r. c #CA5D3C",
"t. c #D05730",
"y. c #D5633B",
"u. c #D26744",
"i. c #D66A46",
"p. c #D26B4B",
"a. c #D4704F",
"s. c #D67758",
"d. c #D8856B",
"f. c #DB896E",
"g. c #D7917D",
"h. c #D6917F",
"j. c #E29377",
"k. c #767886",
"l. c #79788A",
"z. c #7B7C8B",
"x. c #817E8E",
"c. c #848191",
"v. c #838395",
"b. c #898694",
"n. c #898B9B",
"m. c #8B8B9B",
"M. c #8D8E9A",
"N. c #91919E",
"B. c #95919D",
"V. c #99929E",
"C. c #9D949C",
"Z. c #9192A0",
"A. c #9995A3",
"S. c #9899A7",
"D. c #9A9AAA",
"F. c #9B9BAA",
"G. c #9D9EAB",
"H. c #A49CA8",
"J. c #9FA0AD",
"K. c #A0A0AC",
"L. c #A2A2AE",
"P. c #A8A0A9",
"I. c #A9A1A9",
"U. c #B2A2A7",
"Y. c #B2A6AC",
"T. c #BAAAAC",
"R. c #BDAAAC",
"E. c #A7A7B3",
"W. c #A7A8B3",
"Q. c #ABABB6",
"!. c #ADADB7",
"~. c #ADADB8",
"^. c #AFAFB8",
"/. c #AEAEB9",
"(. c #B8AAB0",
"). c #BCAEB3",
"_. c #B1B1BD",
"`. c #B5B4BF",
"'. c #D49585",
"]. c #DA9E8D",
"[. c #D59F90",
"{. c #D8A394",
"}. c #D8AA9F",
"|. c #D6ABA0",
" X c #D4ADA5",
".X c #D4AFA6",
"XX c #D1B0AA",
"oX c #D2B2AE",
"OX c #D9B5AD",
"+X c #C1AFB1",
"@X c #D0B8B7",
"#X c #E5BFB6",
"$X c #E4C7BD",
"%X c #DFD3D5",
"&X c None",
/* pixels */
"&X&X&X&X&X> 9 6 9 3 = &X&X&X&X&X",
"&X&X&X&XZ $.K h N U I l 3 &X&X&X",
"&X&X= n M.N.V K x.U.R.V./ u &X&X",
"&X&Xu z.L.R G C.[.a.u.].A.V 6 &X",
"&X> ` ~.X.M b.{.t.2.2.d.H.V z &X",
"o s n.Z.J _ +Xp.=.<.i.OXl.C z < ",
"o S W.k.C o..X8.=.7.j.$XY. .z 6 ",
"# / ~.E d o.|.5.=.3.w.y.f.T.^ u ",
". ( ~.Y z [ XXq.=.=.:.=.9. X+.a ",
"o ^ _.] M ! ).s.=.=.=.&.e.oX| 9 ",
"  i L.c.c c c.}.0.&.&.4.g.I.L 6 ",
"&X$ ..~.+.V ! I.h.6.r.'.(.[ a &X",
"&XX t %.Q.G.m.J.%X$X@XB.` v < &X",
"&X&Xo e ^ k.N.F.S.`.W.T h 0 &X&X",
"&X&X&X# 2 u v J J ~ [ l = &X&X&X",
"&X&X&X&X&X& 7 a h 0 = &X&X&X&X&X"
};
