/* XPM */
static char *graphic[] = {
/* width height num_colors chars_per_pixel */
"16 16 202 2", 
/* colors */
"   c None",
".  c #6B6C7F",
"X  c None",
"o  c #DAAFA2",
"O  c #78788A",
"+  c #343553",
"@  c #A29BA5",
"#  c #838393",
"$  c #343553",
"%  c #343553",
"&  c #343451",
"*  c None",
"=  c #CB5B36",
"-  c #CEC9CB",
";  c #3D3D59",
":  c #767789",
">  c None",
",  c None",
"<  c #CE6D4D",
"1  c #8C8D9B",
"2  c #5E5E74",
"3  c #CFA89E",
"4  c #9999A6",
"5  c #E0C0B5",
"6  c #A4A4AF",
"7  c None",
"8  c None",
"9  c #C8A7A0",
"0  c #3B3C58",
"q  c #464761",
"w  c #464761",
"e  c #9C96A0",
"r  c None",
"t  c #42435E",
"y  c #54556B",
"u  c #9E9FAA",
"i  c #797A8A",
"p  c #373855",
"a  c #343452",
"s  c #373855",
"d  c #333452",
"f  c #333452",
"g  c #CA562F",
"h  c #888999",
"j  c #333452",
"k  c #616176",
"l  c #D1876F",
"z  c #BFA9A7",
"x  c #C4A7A2",
"c  c #333452",
"v  c #8F909E",
"b  c #9A9BA7",
"n  c None",
"m  c #777789",
"M  c None",
"N  c #3E3F5B",
"B  c #3E3F5B",
"V  c #A3A3AD",
"C  c #E1D3D1",
"Z  c #CB4E25",
"A  c #333552",
"S  c #DBB3A7",
"D  c #5B5C71",
"F  c None",
"G  c #8D8D9C",
"H  c #343453",
"J  c #343453",
"K  c #D18B75",
"L  c #3A3B57",
"P  c #C7A69F",
"I  c #CC461A",
"U  c #3A3B57",
"Y  c #454660",
"T  c #C7A8A1",
"R  c #D2856B",
"E  c #333552",
"W  c #CB542C",
"Q  c #333353",
"!  c #737386",
"~  c #454661",
"^  c #333553",
"/  c #343653",
"(  c #7C7D8E",
")  c None",
"_  c #57586E",
"`  c #878897",
"'  c #363754",
"]  c None",
"[  c #CC4C21",
"{  c #646479",
"}  c #333552",
"|  c #908E9B",
" . c None",
".. c #7A7A8B",
"X. c #ABA0A6",
"o. c #363755",
"O. c #363754",
"+. c #333352",
"@. c #333552",
"#. c #3A3A56",
"$. c #363754",
"%. c None",
"&. c #CA491E",
"*. c #BEA8A5",
"=. c #6D6E81",
"-. c None",
";. c #C3BBBE",
":. c #333553",
">. c #D0866E",
",. c #333352",
"<. c #3D3E59",
"1. c None",
"2. c #5E5F74",
"3. c #8E8F9D",
"4. c None",
"5. c #6B6B7F",
"6. c #CD4619",
"7. c #9B9BA8",
"8. c #CB5C37",
"9. c #333553",
"0. c None",
"q. c #3D3E5A",
"w. c #CE6E4E",
"e. c #ADADB5",
"r. c #333353",
"t. c #53546C",
"y. c #C2B2B2",
"u. c #CD461A",
"i. c #333552",
"p. c #D07354",
"a. c #B1B1BB",
"s. c #DA9D89",
"d. c #7D7D8D",
"f. c None",
"g. c #393A56",
"h. c #C9B7B5",
"j. c #D18268",
"k. c #CB471B",
"l. c #353653",
"z. c #D2917C",
"x. c #373755",
"c. c #353653",
"v. c #868594",
"b. c #707184",
"n. c None",
"m. c #9E9EAA",
"M. c #393957",
"N. c #4B4C65",
"B. c None",
"V. c None",
"C. c #343552",
"Z. c #CB4B21",
"A. c #333553",
"S. c #353654",
"D. c None",
"F. c #494963",
"G. c #54546C",
"H. c #363653",
"J. c #343552",
"K. c #A5A5B0",
"L. c #CB5128",
"P. c #CC471A",
"I. c #3C3D59",
"U. c #343553",
"Y. c None",
"T. c #CC603C",
"R. c #99939C",
"E. c #323452",
"W. c #CA5D39",
"Q. c #383955",
"!. c #9FA0AB",
"~. c #B4A5A8",
"^. c None",
"/. c #383956",
"(. c #4C4C65",
"). c #4E4F68",
"_. c #CB5730",
"`. c #D29D8D",
"'. c #3B3C58",
"]. c #343552",
"[. c #64657A",
"{. c None",
"}. c #343552",
"|. c #C7A9A4",
" X c #41415C",
".X c None",
"XX c #90919E",
"oX c #57576E",
"OX c #CCC2C2",
"+X c None",
"@X c #838190",
"#X c #97909B",
"$X c #A8A8B2",
"%X c #343552",
"&X c None",
"*X c None",
"=X c None",
"-X c #3F405B",
";X c #4A4B64",
":X c None",
">X c #90919F",
",X c #606176",
/* pixels */
"      &XD.7 ^ r.:.E B.4.V.      ",
"    %.^.H o.O.; I.%X].U.Y.-.X   ",
"  %.0.d q : 2 i d.oXt.N / A  .  ",
"* ^.f -XG XX2.e.OXT x #Xw j *Xf.",
"] J p ! !.N.D h.R _.W.3 5.% J.r ",
"M A.;XK.[.q.R.K Z.u.8.P 2 % c :X",
"^ + b.b -XN.*.T.6.Z s.;.k /.$ a ",
"@.g.>X..S._ 9 W 6.[ p.z.z { S.C.",
":.<.m.. % G.|._.6.6.I &.l e U 9.",
"+.L 4 m S.Y ~.< I 6.6.k.j.@ 0 } ",
"n c.( 7.B Q.@X`.L.6.P.= S v.' {.",
"4.E.).$XO  XN.X.>.g w.o - # '.> ",
") , x.,X6 u h V C 5 y.| 1 y M.F ",
"  .X& l.F.=.` v 3.a.` <.t #.8   ",
"  X  .1.i.}.$.Q.s ~ (.H.Q 8 X   ",
"      f.+Xn.a C.9.,.{.=XF       "
};
