/* XPM */
static char *_f139743371e4f9292a39bd199d8764f[] = {
/* columns rows colors chars-per-pixel */
"32 32 151 2 ",
"   c #1B1C22",
".  c #1E1E2A",
"X  c #1F202D",
"o  c #202127",
"O  c #22222E",
"+  c #242533",
"@  c #272836",
"#  c #282936",
"$  c #262738",
"%  c #272839",
"&  c #2A2B3C",
"*  c #2C2E42",
"=  c #2E3046",
"-  c #2F3148",
";  c #303146",
":  c #32344C",
">  c #3B3C4E",
",  c #353651",
"<  c #373853",
"1  c #393A55",
"2  c #3C3D5A",
"3  c #3E4054",
"4  c #3F415B",
"5  c #414357",
"6  c #43445C",
"7  c #46485C",
"8  c #4B4C5D",
"9  c #434463",
"0  c #474962",
"q  c #4B4C63",
"w  c #4F4F6B",
"e  c #4F506A",
"r  c #535464",
"t  c #53546B",
"y  c #585A69",
"u  c #575873",
"i  c #5C5D72",
"p  c #5F6175",
"a  c #636474",
"s  c #65667B",
"d  c #67687A",
"f  c #696A7D",
"g  c #BE360D",
"h  c #BF380E",
"j  c #C13A0F",
"k  c #C53D12",
"l  c #C74014",
"z  c #C94216",
"x  c #C1401A",
"c  c #CC4519",
"v  c #CD491D",
"b  c #D14B1E",
"n  c #C34722",
"m  c #C94A21",
"M  c #C64C29",
"N  c #D24E21",
"B  c #CD522A",
"V  c #D35124",
"C  c #D4572B",
"Z  c #CD5933",
"A  c #CE5D39",
"S  c #D55B30",
"D  c #D1613B",
"F  c #D06745",
"G  c #D56B48",
"H  c #D5704E",
"J  c #CF7357",
"K  c #D47353",
"L  c #DE7A57",
"P  c #DB7E5E",
"I  c #DE815F",
"U  c #D68169",
"Y  c #CF8473",
"T  c #D78C76",
"R  c #DC8B71",
"E  c #DD9075",
"W  c #DB937C",
"Q  c #656680",
"!  c #6B6B81",
"~  c #6F7081",
"^  c #747486",
"/  c #75768A",
"(  c #7C7D8C",
")  c #838494",
"_  c #878799",
"`  c #8B8C9C",
"'  c #8F909D",
"]  c #91919F",
"[  c #9595A4",
"{  c #9A9AA6",
"}  c #9C9CA9",
"|  c #9FA0AC",
" . c #A3A3AC",
".. c #A6A7B3",
"X. c #A7A8B2",
"o. c #ABABB5",
"O. c #AEADB9",
"+. c #B2B3BC",
"@. c #DA9784",
"#. c #DD9984",
"$. c #DD9D8A",
"%. c #E19A83",
"&. c #DFA493",
"*. c #E3A28C",
"=. c #E2A492",
"-. c #E1A897",
";. c #E3AC9A",
":. c #E3B09F",
">. c #E6B5A5",
",. c #EBB8A7",
"<. c #E3B4A9",
"1. c #E7BEB3",
"2. c #E7C1B7",
"3. c #ECC4B6",
"4. c #E9C7BC",
"5. c #B7B7C1",
"6. c #B7B8C0",
"7. c #BBBBC4",
"8. c #BEBEC8",
"9. c #C0BFC8",
"0. c #C4C4CC",
"q. c #C8C7CE",
"w. c #C9C8CF",
"e. c #C7C6D0",
"r. c #CDCDD4",
"t. c #D1D1D7",
"y. c #D5D5DB",
"u. c #D9D8DF",
"i. c #ECCDC4",
"p. c #EDD2CB",
"a. c #F0D4C9",
"s. c #EEDCD9",
"d. c #F1DAD4",
"f. c #F1DEDA",
"g. c #F3E2DD",
"h. c #DDDDE3",
"j. c #E2DFE5",
"k. c #DFE0E4",
"l. c #E2E1E6",
"z. c #EDE3E4",
"x. c #E5E5EA",
"c. c #EAE7EA",
"v. c #ECEAED",
"b. c #F1E3E2",
"n. c #F1E9EB",
"m. c #EDECF1",
"M. c #F2EEF0",
"N. c #F6F3F4",
"B. c #F8F6FA",
"V. c #F9F9F9",
"C. c None",
/* pixels */
"C.C.C.C.C.C.C.C.C.C.C.C.C.+ + $ $ + . C.C.C.C.C.C.C.C.C.C.C.C.C.",
"C.C.C.C.C.C.C.C.C.C.+ & - : - - : : : - * + C.C.C.C.C.C.C.C.C.C.",
"C.C.C.C.C.C.C.C.X * 4 q 2 < : : , 1 2 < 1 , * @ C.C.C.C.C.C.C.C.",
"C.C.C.C.C.C.. % * 7 } +.y : : < < 1 1 2 6 4 , , - @ C.C.C.C.C.C.",
"C.C.C.C.C.O * - 5  .x.o.5 = ; , 2 u ) o.5.o.) e 1 , & C.C.C.C.C.",
"C.C.C.C.O - : 1 { x.+.r - = = 8 ] t.z.s.d.b.c.0.! 2 1 % C.C.C.C.",
"C.C.C.  % : , ( l.9.r - - : 8 o.c.4.R F D H &.b.w.u < : @ C.C.C.",
"C.C.C.O & ; p r.u.f , : - 8 o.n.;.A v c z c m -.m.) 1 1 - C.C.C.",
"C.C.O & = 6 O.c.` 2 , , 1 } n.:.C z b z l c v W M._ 1 1 1 & C.C.",
"C.C.& - , / l.8.q < , , ! h.i.D c b c z c v B ,.j.! 1 < < , O C.",
"C.O & - 0 5.m.) 4 , , 4 ..v.E c c c z c v b R b.O.0 1 1 1 < & C.",
"C.@ - : s h.0.t 2 , 4 u t.p.A k l k k c V R d.u.s 1 < , < < = C.",
"C.@ = : ' v.' 4 4 2 2 ! x.<.m l l z c b I g.V.l...^ 5 - : < - . ",
"  + & 3 6.h.p < 2 < < / m.*.v c c v b V L ,.3.a.b.x.} 5 : < , O ",
"  & = r y.e.q , : : : ) v.%.c z c c v N V C S D P 3.c.' 1 1 , O ",
"  % * a l.+.4 : = : : ( v.%.c k k k c b b b b v v G p.y.t : , $ ",
"  + # a x.o.1 - - , : ~ x.;.c l k k c b c c c c c v &.v./ 1 < $ ",
"  # # a x.+.6 < : < < p h.2.B z k z z z z k j k c c W v.` 1 < & ",
"  + = i h.e.e < < 2 2 q 0.g.K c z k k z c k c k c m =.m.( : : + ",
"C.# = 7 e.h.Q 1 1 2 , 2 [ M.=.m c z k k c k k k k Z i.j.s , : . ",
"C.+ & : | v.{ 2 , , : , p y.s.K c z k j j k k k m @.v.O.6 < - C.",
"C.  O & d k.r.t : : = - 1 ' v.1.C z k j j l c x U f.u.a , 1 * C.",
"C.C.o # > o.m.| 6 - = : < e 6.c.$.n j h h k M Y s.l.) > < : O C.",
"C.C.o # & r e.c.{ 0 < < 1 < i 0.f.T m k n J <.c.u._ 4 , , & C.C.",
"C.C.C.% * & a r.c.8._ p e 0 9 ^ h.b.$.#.2.z.c.7.f 1 , , = . C.C.",
"C.C.C.X # # & y X.h.c.k.r.7.7.0.x.B.N.N.c.7.( 7 : < 2 1 @ C.C.C.",
"C.C.C.C.+ % # * > s { 8.u.k.l.x.h.t.h.N.w.d 1 : , 1 1 & C.C.C.C.",
"C.C.C.C.C.O # & = = = 5 r p s ! Q t d 8.x.5.0 , , - @ C.C.C.C.C.",
"C.C.C.C.C.C.X & = = = - : : , 2 9 2 1 w ) ( 5 - * @ C.C.C.C.C.C.",
"C.C.C.C.C.C.C.C.% - - : : , 9 9 9 2 2 1 1 , : % . C.C.C.C.C.C.C.",
"C.C.C.C.C.C.C.C.C.. $ * - : , < 2 1 < : * + . C.C.C.C.C.C.C.C.C.",
"C.C.C.C.C.C.C.C.C.C.C.C.. O + + $ $ $ . C.C.C.C.C.C.C.C.C.C.C.C."
};
